<svg width="28" height="22" viewBox="0 0 28 22" fill="none" xmlns="http://www.w3.org/2000/svg">
<path d="M23.6624 14.0979C23.5304 13.1807 22.8223 12.4658 21.9107 12.2526C18.3673 11.4221 17.479 9.38163 17.3292 7.11837C16.7008 7.0015 15.5829 6.875 13.6854 6.875C11.7879 6.875 10.67 7.0015 10.0417 7.11837C9.89179 9.38163 9.00354 11.4221 5.46017 12.2526C4.54854 12.4671 3.84042 13.1807 3.70842 14.0979L3.02504 18.8306C2.78442 20.4971 4.00817 22 5.71042 22H21.6604C23.3613 22 24.5864 20.4971 24.3458 18.8306L23.6624 14.0979ZM13.6854 18.5515C11.7673 18.5515 10.2122 17.0115 10.2122 15.114C10.2122 13.2165 11.7673 11.6765 13.6854 11.6765C15.6035 11.6765 17.1587 13.2165 17.1587 15.114C17.1587 17.0115 15.6022 18.5515 13.6854 18.5515ZM27.3667 5.5C27.3337 3.4375 22.0839 0.001375 13.6854 0C5.28554 0.001375 0.0357934 3.4375 0.00416843 5.5C-0.0274566 7.5625 0.0330435 10.2465 3.48979 9.79962C7.53367 9.27575 7.28479 7.86363 7.28479 5.84512C7.28479 4.43712 10.5738 4.0975 13.6854 4.0975C16.797 4.0975 20.0847 4.43712 20.086 5.84512C20.086 7.86363 19.8372 9.27575 23.881 9.79962C27.3364 10.2465 27.3983 7.5625 27.3667 5.5Z" fill="#EB3349"/>
</svg>
