<svg width="21" height="27" viewBox="0 0 21 27" fill="none" xmlns="http://www.w3.org/2000/svg">
<path d="M10.3874 0C7.6335 0.00324887 4.99331 1.09868 3.046 3.04599C1.09869 4.9933 0.00325992 7.63349 1.10512e-05 10.3874C-0.00328732 12.6379 0.731833 14.8273 2.0926 16.6199C2.0926 16.6199 2.37589 16.9929 2.42217 17.0467L10.3874 26.4407L18.3564 17.042C18.398 16.9919 18.6822 16.6199 18.6822 16.6199L18.6832 16.617C20.0433 14.8253 20.7781 12.6369 20.7748 10.3874C20.7716 7.63349 19.6762 4.9933 17.7288 3.04599C15.7815 1.09868 13.1413 0.00324887 10.3874 0ZM10.3874 14.1646C9.64035 14.1646 8.91006 13.9431 8.2889 13.5281C7.66773 13.113 7.1836 12.5231 6.89771 11.8329C6.61181 11.1427 6.53701 10.3832 6.68276 9.65051C6.8285 8.91779 7.18825 8.24475 7.71651 7.7165C8.24476 7.18824 8.9178 6.82849 9.65052 6.68275C10.3832 6.537 11.1427 6.6118 11.8329 6.89769C12.5231 7.18358 13.113 7.66772 13.5281 8.28889C13.9431 8.91005 14.1647 9.64034 14.1647 10.3874C14.1634 11.3888 13.765 12.3488 13.057 13.0569C12.3489 13.765 11.3888 14.1634 10.3874 14.1646Z" fill="#EB3349"/>
</svg>
