<svg width="170" height="140" viewBox="0 0 170 140" fill="none" xmlns="http://www.w3.org/2000/svg">
<mask id="path-1-outside-1" maskUnits="userSpaceOnUse" x="0" y="56.9243" width="170" height="83" fill="black">
<rect fill="white" y="56.9243" width="170" height="83"/>
<path fill-rule="evenodd" clip-rule="evenodd" d="M70.0493 110.906C72.7041 112.854 79.314 108.886 81.5477 108.434C81.7827 111.346 83.4857 111.247 85.9678 109.679C86.1581 109.557 86.3418 109.406 86.5119 109.252L86.5178 109.259C86.6214 109.208 90.5218 106.455 91.2706 105.905L92.4093 105.056C91.7692 106.492 91.1661 107.517 90.5631 108.842C90.0788 109.903 90.6819 110.367 91.3599 110.377C91.7936 110.381 92.1996 110.139 92.5904 110.014C93.1193 109.66 93.9809 109.257 94.4694 108.938C95.8507 108.029 97.1284 106.944 98.4811 105.979C99.1658 105.503 99.6804 105.193 100.352 104.716C100.575 104.658 100.662 104.632 100.633 104.773C100.281 106.361 99.0504 107.696 99.0504 109.397C98.983 111.776 106.24 108.584 107.186 107.848C107.706 109.78 108.688 110.117 109.839 110.045C111.262 109.955 112.303 108.943 113.421 108.196C115.452 108.509 117.409 108.362 119.238 107.467C119.044 108.689 119.866 109.853 121.11 109.853C124.322 109.958 127.209 108.562 128.879 107.848C124.264 111.932 118.861 115.118 114.794 119.805C111.946 123.082 106.873 129.044 106.413 133.037C106.315 133.898 105.831 135.532 107.962 136.138C108.239 136.218 108.833 136.151 109.122 136.138C114.325 135.906 123.373 122.422 126.331 118.474C129.909 113.699 136.528 101.257 143.599 101.257C144.647 101.257 145.535 101.024 145.535 102.42C145.535 104.391 142.777 106.006 141.157 106.569C139.407 107.177 138.951 106.758 138.426 105.294C137.611 105.396 136.969 105.794 136.487 106.453C137.065 108.084 138.526 108.229 139.977 107.701C141.789 107.045 144.02 105.491 144.43 105.171C145.67 104.207 147.403 102.978 147.757 101.686C148.03 100.697 147.539 99.7188 145.921 99.707H145.534C142.91 99.707 141.369 101.172 139.336 101.644L140.269 99.3902C139.626 99.3944 138.687 99.3321 138.549 99.4871C138.167 99.9278 137.618 101.158 136.865 102.275C135.667 104.067 135.2 103.99 133.453 105.064C132.076 105.914 126.571 108.234 124.617 108.234C123.393 108.234 121.131 108.432 121.131 106.684C121.131 105.397 122.883 104.652 124.25 104.094C125.711 103.5 125.665 102.23 123.936 102.42L122.913 102.476C122.211 102.476 121.623 102.639 122.184 101.876C123.101 100.632 125.77 99.3877 127.68 99.2461C128.007 99.2208 128.185 99.2579 128.277 99.6438C128.324 99.8503 128.302 100.133 128.104 100.483C127.879 100.88 128.366 100.899 128.822 100.736C130.411 100.158 132.845 98.251 129.267 98.1574C126.72 98.165 121.869 100.339 120.193 102.481C118.863 104.179 120.435 104.127 122.098 104.025C120.943 105.675 116.961 108.804 114.159 107.459C114.895 106.36 116.096 105.407 116.096 103.584C116.096 102.676 115.451 102.033 114.547 102.033C113.016 102.033 111.448 103.793 111.448 105.522C111.448 106.649 112.069 107.271 112.703 107.905C112.326 108.079 111.575 108.676 110.908 108.861C109.71 109.188 108.485 109.027 108.879 107.308C109.538 104.427 112.053 102.308 113.984 100.642C114.941 99.8191 115.773 99.2857 116.158 98.4953C116.449 97.8903 115.713 97.7546 115.201 97.951C110.829 99.632 109.266 106.136 104.87 108.069C104.254 108.339 100.09 109.921 100.789 108.148C101.485 106.395 102.349 104.886 103.023 103.091C103.507 101.803 102.649 101.611 101.918 102.322C100.494 103.706 99.597 104.636 98.0052 105.784C96.4437 106.913 94.3263 108.405 93.4461 108.549C93.2002 108.59 92.9947 108.569 92.87 108.527C92.5634 108.421 92.881 107.687 93.4461 106.807C93.8403 106.194 94.5756 105.017 95.0919 104.069C95.3883 103.529 95.6713 103.15 95.6713 102.724C95.6713 102.396 95.1264 102.273 94.8299 102.499L86.6416 108.506C86.095 108.775 85.6174 109.008 84.7204 109.008C83.3408 109.008 83.6912 108.156 83.1715 107.072C81.0887 107.876 79.6046 108.601 76.5902 109.364C74.4829 109.898 72.0631 110.498 71.6993 109.087C71.5165 108.373 71.4525 107.789 71.8374 107.161C72.4775 106.114 74.349 105.562 75.3361 105.219C75.3589 105.201 75.3715 104.341 75.3715 104.02C74.4534 104.135 70.6465 104.839 72.4489 103.128C73.6912 101.952 76.3965 100.91 78.1349 100.871C78.9131 100.821 78.4322 102.036 78.0726 102.157C79.0428 102.422 80.4317 101.836 80.9842 100.663C81.5654 99.4374 80.067 99.5242 78.8904 99.7138C75.8314 100.209 71.3582 102.15 70.2574 103.691C69.6038 104.601 69.9314 105.522 71.1619 105.522L72.3984 105.551C72.4278 105.779 69.699 107.386 69.4286 109.358C69.3553 109.923 69.5878 110.716 70.0493 110.906ZM134.797 105.086C134.421 105.337 130.259 107.834 128.97 108.75C127.678 109.667 128.219 109.251 127.678 109.667C127.138 110.082 121.474 114.207 119.103 116.663C116.731 119.12 112.775 123.451 111.653 125.2C110.529 126.95 108.656 130.406 108.656 132.071C108.656 133.619 108.887 134.182 109.434 134.393C110.226 134.704 111.618 134.081 113.193 132.82C115.06 131.326 121.031 124.588 122.559 122.41C125.852 117.717 131.298 110.118 134.797 105.086ZM113.375 106.92C113.539 106.698 112.755 106.642 112.866 105.286C113.07 102.686 114.685 103.412 114.837 103.881C114.983 104.326 114.911 105.044 114.462 105.681C114.011 106.32 113.411 107.032 113.375 106.92ZM23.8294 109.033L22.8701 109.988C23.3838 110.577 24.1452 110.542 24.6059 110.625L25.4423 109.65C24.7879 109.65 24.2909 109.562 23.8294 109.033ZM39.6232 117.629C36.9684 120.548 26.8699 128.966 27.0063 137.302C27.0063 138.867 29.0058 139.113 30.2599 138.925C32.0219 138.659 34.9133 136.103 36.2054 134.825C39.6796 131.424 43.5725 126.239 45.78 122.967C49.4177 117.589 56.4159 106.244 62.3773 103.98C63.4714 103.566 66.1278 102.852 66.1278 104.802C66.1278 107.363 62.5146 109.032 60.3189 109.032C59.3158 109.054 59.1271 108.801 59.085 108.051C58.0743 107.636 57.1091 108.764 57.2421 109.203C58.7093 112.443 66.2323 107.75 67.9606 105.24C68.188 104.926 68.4508 104.379 68.4508 103.972C68.4508 102.563 67.3541 102.41 66.2685 102.42C61.5856 102.467 60.3559 104.058 59.5423 104.361L61.1864 102.103L59.1549 102.034C58.06 106.14 53.7367 107.854 50.4789 110.018C47.1015 112.104 41.0112 116.104 39.6232 117.629ZM6.8977 62.5411C8.82645 60.2298 11.1831 58.6145 14.1823 58.5589C17.9598 58.4847 21.0508 59.6737 20.8099 64.8095C20.7771 65.4853 20.6179 65.9454 20.4057 66.611C20.0384 67.7857 19.9871 68.2567 20.2482 68.2567C21.5865 68.2601 23.4967 65.5763 23.5211 64.0545C23.5211 62.3246 21.7676 60.5382 19.71 59.4108C14.0037 56.2273 9.04206 58.5302 5.7851 62.7931C3.05622 66.3684 1.66567 70.7627 1.22012 75.1216C-0.334667 88.1596 6.38225 103.479 20.254 108.642C20.5505 108.584 20.7105 108.611 21.3801 108.127C16.6972 106.574 11.744 102.087 8.80202 98.16C5.87353 94.2518 4.10313 90.8611 3.14718 87.2133C2.04889 83.0128 1.77516 75.7409 2.69826 71.3475C3.23646 68.7833 4.91505 64.9131 6.8977 62.5411ZM55.3252 107.842C52.8658 109.385 42.2982 116.71 37.7349 121.251C35.6385 123.337 32.3992 126.964 30.4065 130.781C29.7639 132.006 28.9435 134.19 29.3495 135.59C30.4124 139.256 34.9074 134.386 36.0276 133.287C38.2731 131.081 40.2574 128.813 42.1095 126.482C42.2232 126.373 42.3201 126.249 42.3984 126.118C45.5989 122.049 48.4289 117.781 51.573 113.298C53.0941 111.133 55.3252 107.842 55.3252 107.842ZM38.8719 114.768C35.1113 114.17 30.5219 112.691 26.6181 111.335C27.003 111.126 27.2641 110.685 27.6439 110.505C30.6844 111.923 36.8893 113.464 39.2315 114.002C39.4808 114.059 38.7397 114.585 38.8719 114.768ZM55.6705 116.762V117.537C62.8481 118.625 107.368 121.629 115.289 117.537C107.745 118.349 99.7301 118.873 91.7001 118.467L55.6705 116.762ZM156.766 93.5095C157.805 93.7387 159.391 93.9299 161.163 94.3934C163.319 94.9613 167.945 96.7865 167.834 99.3877C167.834 103.562 160.627 107.821 157.155 107.074C156.577 106.949 157.441 105.734 157.471 105.083C157.485 104.899 157.304 104.818 157.155 104.747C156.34 104.368 150.155 109.355 149.794 106.298C149.478 103.6 154.02 100.452 157.524 99.8233C158.472 99.6523 158.996 99.8494 158.5 101.088C158.286 101.621 157.981 101.846 157.555 102.43C160.338 102.182 161.494 98.9352 158.317 98.9352C154.933 98.9352 148.984 103.64 147.999 106.963C147.675 108.064 148.158 109.01 149.407 109.01C151.825 109.01 154.937 106.852 155.606 106.686C155.329 107.667 155.229 107.935 155.648 108.236C156.226 108.654 158.393 107.921 157.752 108.236C150.632 111.733 142.408 113.476 134.711 114.913C137.441 114.99 147.501 113.018 155.024 110.365C160.069 108.585 163.843 106.071 164.969 105.202C172.525 99.9556 168.142 94.3572 162.627 93.0275C161.068 92.6525 157.748 92.0972 156.766 93.5095Z"/>
</mask>
<path fill-rule="evenodd" clip-rule="evenodd" d="M70.0493 110.906C72.7041 112.854 79.314 108.886 81.5477 108.434C81.7827 111.346 83.4857 111.247 85.9678 109.679C86.1581 109.557 86.3418 109.406 86.5119 109.252L86.5178 109.259C86.6214 109.208 90.5218 106.455 91.2706 105.905L92.4093 105.056C91.7692 106.492 91.1661 107.517 90.5631 108.842C90.0788 109.903 90.6819 110.367 91.3599 110.377C91.7936 110.381 92.1996 110.139 92.5904 110.014C93.1193 109.66 93.9809 109.257 94.4694 108.938C95.8507 108.029 97.1284 106.944 98.4811 105.979C99.1658 105.503 99.6804 105.193 100.352 104.716C100.575 104.658 100.662 104.632 100.633 104.773C100.281 106.361 99.0504 107.696 99.0504 109.397C98.983 111.776 106.24 108.584 107.186 107.848C107.706 109.78 108.688 110.117 109.839 110.045C111.262 109.955 112.303 108.943 113.421 108.196C115.452 108.509 117.409 108.362 119.238 107.467C119.044 108.689 119.866 109.853 121.11 109.853C124.322 109.958 127.209 108.562 128.879 107.848C124.264 111.932 118.861 115.118 114.794 119.805C111.946 123.082 106.873 129.044 106.413 133.037C106.315 133.898 105.831 135.532 107.962 136.138C108.239 136.218 108.833 136.151 109.122 136.138C114.325 135.906 123.373 122.422 126.331 118.474C129.909 113.699 136.528 101.257 143.599 101.257C144.647 101.257 145.535 101.024 145.535 102.42C145.535 104.391 142.777 106.006 141.157 106.569C139.407 107.177 138.951 106.758 138.426 105.294C137.611 105.396 136.969 105.794 136.487 106.453C137.065 108.084 138.526 108.229 139.977 107.701C141.789 107.045 144.02 105.491 144.43 105.171C145.67 104.207 147.403 102.978 147.757 101.686C148.03 100.697 147.539 99.7188 145.921 99.707H145.534C142.91 99.707 141.369 101.172 139.336 101.644L140.269 99.3902C139.626 99.3944 138.687 99.3321 138.549 99.4871C138.167 99.9278 137.618 101.158 136.865 102.275C135.667 104.067 135.2 103.99 133.453 105.064C132.076 105.914 126.571 108.234 124.617 108.234C123.393 108.234 121.131 108.432 121.131 106.684C121.131 105.397 122.883 104.652 124.25 104.094C125.711 103.5 125.665 102.23 123.936 102.42L122.913 102.476C122.211 102.476 121.623 102.639 122.184 101.876C123.101 100.632 125.77 99.3877 127.68 99.2461C128.007 99.2208 128.185 99.2579 128.277 99.6438C128.324 99.8503 128.302 100.133 128.104 100.483C127.879 100.88 128.366 100.899 128.822 100.736C130.411 100.158 132.845 98.251 129.267 98.1574C126.72 98.165 121.869 100.339 120.193 102.481C118.863 104.179 120.435 104.127 122.098 104.025C120.943 105.675 116.961 108.804 114.159 107.459C114.895 106.36 116.096 105.407 116.096 103.584C116.096 102.676 115.451 102.033 114.547 102.033C113.016 102.033 111.448 103.793 111.448 105.522C111.448 106.649 112.069 107.271 112.703 107.905C112.326 108.079 111.575 108.676 110.908 108.861C109.71 109.188 108.485 109.027 108.879 107.308C109.538 104.427 112.053 102.308 113.984 100.642C114.941 99.8191 115.773 99.2857 116.158 98.4953C116.449 97.8903 115.713 97.7546 115.201 97.951C110.829 99.632 109.266 106.136 104.87 108.069C104.254 108.339 100.09 109.921 100.789 108.148C101.485 106.395 102.349 104.886 103.023 103.091C103.507 101.803 102.649 101.611 101.918 102.322C100.494 103.706 99.597 104.636 98.0052 105.784C96.4437 106.913 94.3263 108.405 93.4461 108.549C93.2002 108.59 92.9947 108.569 92.87 108.527C92.5634 108.421 92.881 107.687 93.4461 106.807C93.8403 106.194 94.5756 105.017 95.0919 104.069C95.3883 103.529 95.6713 103.15 95.6713 102.724C95.6713 102.396 95.1264 102.273 94.8299 102.499L86.6416 108.506C86.095 108.775 85.6174 109.008 84.7204 109.008C83.3408 109.008 83.6912 108.156 83.1715 107.072C81.0887 107.876 79.6046 108.601 76.5902 109.364C74.4829 109.898 72.0631 110.498 71.6993 109.087C71.5165 108.373 71.4525 107.789 71.8374 107.161C72.4775 106.114 74.349 105.562 75.3361 105.219C75.3589 105.201 75.3715 104.341 75.3715 104.02C74.4534 104.135 70.6465 104.839 72.4489 103.128C73.6912 101.952 76.3965 100.91 78.1349 100.871C78.9131 100.821 78.4322 102.036 78.0726 102.157C79.0428 102.422 80.4317 101.836 80.9842 100.663C81.5654 99.4374 80.067 99.5242 78.8904 99.7138C75.8314 100.209 71.3582 102.15 70.2574 103.691C69.6038 104.601 69.9314 105.522 71.1619 105.522L72.3984 105.551C72.4278 105.779 69.699 107.386 69.4286 109.358C69.3553 109.923 69.5878 110.716 70.0493 110.906ZM134.797 105.086C134.421 105.337 130.259 107.834 128.97 108.75C127.678 109.667 128.219 109.251 127.678 109.667C127.138 110.082 121.474 114.207 119.103 116.663C116.731 119.12 112.775 123.451 111.653 125.2C110.529 126.95 108.656 130.406 108.656 132.071C108.656 133.619 108.887 134.182 109.434 134.393C110.226 134.704 111.618 134.081 113.193 132.82C115.06 131.326 121.031 124.588 122.559 122.41C125.852 117.717 131.298 110.118 134.797 105.086ZM113.375 106.92C113.539 106.698 112.755 106.642 112.866 105.286C113.07 102.686 114.685 103.412 114.837 103.881C114.983 104.326 114.911 105.044 114.462 105.681C114.011 106.32 113.411 107.032 113.375 106.92ZM23.8294 109.033L22.8701 109.988C23.3838 110.577 24.1452 110.542 24.6059 110.625L25.4423 109.65C24.7879 109.65 24.2909 109.562 23.8294 109.033ZM39.6232 117.629C36.9684 120.548 26.8699 128.966 27.0063 137.302C27.0063 138.867 29.0058 139.113 30.2599 138.925C32.0219 138.659 34.9133 136.103 36.2054 134.825C39.6796 131.424 43.5725 126.239 45.78 122.967C49.4177 117.589 56.4159 106.244 62.3773 103.98C63.4714 103.566 66.1278 102.852 66.1278 104.802C66.1278 107.363 62.5146 109.032 60.3189 109.032C59.3158 109.054 59.1271 108.801 59.085 108.051C58.0743 107.636 57.1091 108.764 57.2421 109.203C58.7093 112.443 66.2323 107.75 67.9606 105.24C68.188 104.926 68.4508 104.379 68.4508 103.972C68.4508 102.563 67.3541 102.41 66.2685 102.42C61.5856 102.467 60.3559 104.058 59.5423 104.361L61.1864 102.103L59.1549 102.034C58.06 106.14 53.7367 107.854 50.4789 110.018C47.1015 112.104 41.0112 116.104 39.6232 117.629ZM6.8977 62.5411C8.82645 60.2298 11.1831 58.6145 14.1823 58.5589C17.9598 58.4847 21.0508 59.6737 20.8099 64.8095C20.7771 65.4853 20.6179 65.9454 20.4057 66.611C20.0384 67.7857 19.9871 68.2567 20.2482 68.2567C21.5865 68.2601 23.4967 65.5763 23.5211 64.0545C23.5211 62.3246 21.7676 60.5382 19.71 59.4108C14.0037 56.2273 9.04206 58.5302 5.7851 62.7931C3.05622 66.3684 1.66567 70.7627 1.22012 75.1216C-0.334667 88.1596 6.38225 103.479 20.254 108.642C20.5505 108.584 20.7105 108.611 21.3801 108.127C16.6972 106.574 11.744 102.087 8.80202 98.16C5.87353 94.2518 4.10313 90.8611 3.14718 87.2133C2.04889 83.0128 1.77516 75.7409 2.69826 71.3475C3.23646 68.7833 4.91505 64.9131 6.8977 62.5411ZM55.3252 107.842C52.8658 109.385 42.2982 116.71 37.7349 121.251C35.6385 123.337 32.3992 126.964 30.4065 130.781C29.7639 132.006 28.9435 134.19 29.3495 135.59C30.4124 139.256 34.9074 134.386 36.0276 133.287C38.2731 131.081 40.2574 128.813 42.1095 126.482C42.2232 126.373 42.3201 126.249 42.3984 126.118C45.5989 122.049 48.4289 117.781 51.573 113.298C53.0941 111.133 55.3252 107.842 55.3252 107.842ZM38.8719 114.768C35.1113 114.17 30.5219 112.691 26.6181 111.335C27.003 111.126 27.2641 110.685 27.6439 110.505C30.6844 111.923 36.8893 113.464 39.2315 114.002C39.4808 114.059 38.7397 114.585 38.8719 114.768ZM55.6705 116.762V117.537C62.8481 118.625 107.368 121.629 115.289 117.537C107.745 118.349 99.7301 118.873 91.7001 118.467L55.6705 116.762ZM156.766 93.5095C157.805 93.7387 159.391 93.9299 161.163 94.3934C163.319 94.9613 167.945 96.7865 167.834 99.3877C167.834 103.562 160.627 107.821 157.155 107.074C156.577 106.949 157.441 105.734 157.471 105.083C157.485 104.899 157.304 104.818 157.155 104.747C156.34 104.368 150.155 109.355 149.794 106.298C149.478 103.6 154.02 100.452 157.524 99.8233C158.472 99.6523 158.996 99.8494 158.5 101.088C158.286 101.621 157.981 101.846 157.555 102.43C160.338 102.182 161.494 98.9352 158.317 98.9352C154.933 98.9352 148.984 103.64 147.999 106.963C147.675 108.064 148.158 109.01 149.407 109.01C151.825 109.01 154.937 106.852 155.606 106.686C155.329 107.667 155.229 107.935 155.648 108.236C156.226 108.654 158.393 107.921 157.752 108.236C150.632 111.733 142.408 113.476 134.711 114.913C137.441 114.99 147.501 113.018 155.024 110.365C160.069 108.585 163.843 106.071 164.969 105.202C172.525 99.9556 168.142 94.3572 162.627 93.0275C161.068 92.6525 157.748 92.0972 156.766 93.5095Z" fill="#397FD1"/>
<path fill-rule="evenodd" clip-rule="evenodd" d="M70.0493 110.906C72.7041 112.854 79.314 108.886 81.5477 108.434C81.7827 111.346 83.4857 111.247 85.9678 109.679C86.1581 109.557 86.3418 109.406 86.5119 109.252L86.5178 109.259C86.6214 109.208 90.5218 106.455 91.2706 105.905L92.4093 105.056C91.7692 106.492 91.1661 107.517 90.5631 108.842C90.0788 109.903 90.6819 110.367 91.3599 110.377C91.7936 110.381 92.1996 110.139 92.5904 110.014C93.1193 109.66 93.9809 109.257 94.4694 108.938C95.8507 108.029 97.1284 106.944 98.4811 105.979C99.1658 105.503 99.6804 105.193 100.352 104.716C100.575 104.658 100.662 104.632 100.633 104.773C100.281 106.361 99.0504 107.696 99.0504 109.397C98.983 111.776 106.24 108.584 107.186 107.848C107.706 109.78 108.688 110.117 109.839 110.045C111.262 109.955 112.303 108.943 113.421 108.196C115.452 108.509 117.409 108.362 119.238 107.467C119.044 108.689 119.866 109.853 121.11 109.853C124.322 109.958 127.209 108.562 128.879 107.848C124.264 111.932 118.861 115.118 114.794 119.805C111.946 123.082 106.873 129.044 106.413 133.037C106.315 133.898 105.831 135.532 107.962 136.138C108.239 136.218 108.833 136.151 109.122 136.138C114.325 135.906 123.373 122.422 126.331 118.474C129.909 113.699 136.528 101.257 143.599 101.257C144.647 101.257 145.535 101.024 145.535 102.42C145.535 104.391 142.777 106.006 141.157 106.569C139.407 107.177 138.951 106.758 138.426 105.294C137.611 105.396 136.969 105.794 136.487 106.453C137.065 108.084 138.526 108.229 139.977 107.701C141.789 107.045 144.02 105.491 144.43 105.171C145.67 104.207 147.403 102.978 147.757 101.686C148.03 100.697 147.539 99.7188 145.921 99.707H145.534C142.91 99.707 141.369 101.172 139.336 101.644L140.269 99.3902C139.626 99.3944 138.687 99.3321 138.549 99.4871C138.167 99.9278 137.618 101.158 136.865 102.275C135.667 104.067 135.2 103.99 133.453 105.064C132.076 105.914 126.571 108.234 124.617 108.234C123.393 108.234 121.131 108.432 121.131 106.684C121.131 105.397 122.883 104.652 124.25 104.094C125.711 103.5 125.665 102.23 123.936 102.42L122.913 102.476C122.211 102.476 121.623 102.639 122.184 101.876C123.101 100.632 125.77 99.3877 127.68 99.2461C128.007 99.2208 128.185 99.2579 128.277 99.6438C128.324 99.8503 128.302 100.133 128.104 100.483C127.879 100.88 128.366 100.899 128.822 100.736C130.411 100.158 132.845 98.251 129.267 98.1574C126.72 98.165 121.869 100.339 120.193 102.481C118.863 104.179 120.435 104.127 122.098 104.025C120.943 105.675 116.961 108.804 114.159 107.459C114.895 106.36 116.096 105.407 116.096 103.584C116.096 102.676 115.451 102.033 114.547 102.033C113.016 102.033 111.448 103.793 111.448 105.522C111.448 106.649 112.069 107.271 112.703 107.905C112.326 108.079 111.575 108.676 110.908 108.861C109.71 109.188 108.485 109.027 108.879 107.308C109.538 104.427 112.053 102.308 113.984 100.642C114.941 99.8191 115.773 99.2857 116.158 98.4953C116.449 97.8903 115.713 97.7546 115.201 97.951C110.829 99.632 109.266 106.136 104.87 108.069C104.254 108.339 100.09 109.921 100.789 108.148C101.485 106.395 102.349 104.886 103.023 103.091C103.507 101.803 102.649 101.611 101.918 102.322C100.494 103.706 99.597 104.636 98.0052 105.784C96.4437 106.913 94.3263 108.405 93.4461 108.549C93.2002 108.59 92.9947 108.569 92.87 108.527C92.5634 108.421 92.881 107.687 93.4461 106.807C93.8403 106.194 94.5756 105.017 95.0919 104.069C95.3883 103.529 95.6713 103.15 95.6713 102.724C95.6713 102.396 95.1264 102.273 94.8299 102.499L86.6416 108.506C86.095 108.775 85.6174 109.008 84.7204 109.008C83.3408 109.008 83.6912 108.156 83.1715 107.072C81.0887 107.876 79.6046 108.601 76.5902 109.364C74.4829 109.898 72.0631 110.498 71.6993 109.087C71.5165 108.373 71.4525 107.789 71.8374 107.161C72.4775 106.114 74.349 105.562 75.3361 105.219C75.3589 105.201 75.3715 104.341 75.3715 104.02C74.4534 104.135 70.6465 104.839 72.4489 103.128C73.6912 101.952 76.3965 100.91 78.1349 100.871C78.9131 100.821 78.4322 102.036 78.0726 102.157C79.0428 102.422 80.4317 101.836 80.9842 100.663C81.5654 99.4374 80.067 99.5242 78.8904 99.7138C75.8314 100.209 71.3582 102.15 70.2574 103.691C69.6038 104.601 69.9314 105.522 71.1619 105.522L72.3984 105.551C72.4278 105.779 69.699 107.386 69.4286 109.358C69.3553 109.923 69.5878 110.716 70.0493 110.906ZM134.797 105.086C134.421 105.337 130.259 107.834 128.97 108.75C127.678 109.667 128.219 109.251 127.678 109.667C127.138 110.082 121.474 114.207 119.103 116.663C116.731 119.12 112.775 123.451 111.653 125.2C110.529 126.95 108.656 130.406 108.656 132.071C108.656 133.619 108.887 134.182 109.434 134.393C110.226 134.704 111.618 134.081 113.193 132.82C115.06 131.326 121.031 124.588 122.559 122.41C125.852 117.717 131.298 110.118 134.797 105.086ZM113.375 106.92C113.539 106.698 112.755 106.642 112.866 105.286C113.07 102.686 114.685 103.412 114.837 103.881C114.983 104.326 114.911 105.044 114.462 105.681C114.011 106.32 113.411 107.032 113.375 106.92ZM23.8294 109.033L22.8701 109.988C23.3838 110.577 24.1452 110.542 24.6059 110.625L25.4423 109.65C24.7879 109.65 24.2909 109.562 23.8294 109.033ZM39.6232 117.629C36.9684 120.548 26.8699 128.966 27.0063 137.302C27.0063 138.867 29.0058 139.113 30.2599 138.925C32.0219 138.659 34.9133 136.103 36.2054 134.825C39.6796 131.424 43.5725 126.239 45.78 122.967C49.4177 117.589 56.4159 106.244 62.3773 103.98C63.4714 103.566 66.1278 102.852 66.1278 104.802C66.1278 107.363 62.5146 109.032 60.3189 109.032C59.3158 109.054 59.1271 108.801 59.085 108.051C58.0743 107.636 57.1091 108.764 57.2421 109.203C58.7093 112.443 66.2323 107.75 67.9606 105.24C68.188 104.926 68.4508 104.379 68.4508 103.972C68.4508 102.563 67.3541 102.41 66.2685 102.42C61.5856 102.467 60.3559 104.058 59.5423 104.361L61.1864 102.103L59.1549 102.034C58.06 106.14 53.7367 107.854 50.4789 110.018C47.1015 112.104 41.0112 116.104 39.6232 117.629ZM6.8977 62.5411C8.82645 60.2298 11.1831 58.6145 14.1823 58.5589C17.9598 58.4847 21.0508 59.6737 20.8099 64.8095C20.7771 65.4853 20.6179 65.9454 20.4057 66.611C20.0384 67.7857 19.9871 68.2567 20.2482 68.2567C21.5865 68.2601 23.4967 65.5763 23.5211 64.0545C23.5211 62.3246 21.7676 60.5382 19.71 59.4108C14.0037 56.2273 9.04206 58.5302 5.7851 62.7931C3.05622 66.3684 1.66567 70.7627 1.22012 75.1216C-0.334667 88.1596 6.38225 103.479 20.254 108.642C20.5505 108.584 20.7105 108.611 21.3801 108.127C16.6972 106.574 11.744 102.087 8.80202 98.16C5.87353 94.2518 4.10313 90.8611 3.14718 87.2133C2.04889 83.0128 1.77516 75.7409 2.69826 71.3475C3.23646 68.7833 4.91505 64.9131 6.8977 62.5411ZM55.3252 107.842C52.8658 109.385 42.2982 116.71 37.7349 121.251C35.6385 123.337 32.3992 126.964 30.4065 130.781C29.7639 132.006 28.9435 134.19 29.3495 135.59C30.4124 139.256 34.9074 134.386 36.0276 133.287C38.2731 131.081 40.2574 128.813 42.1095 126.482C42.2232 126.373 42.3201 126.249 42.3984 126.118C45.5989 122.049 48.4289 117.781 51.573 113.298C53.0941 111.133 55.3252 107.842 55.3252 107.842ZM38.8719 114.768C35.1113 114.17 30.5219 112.691 26.6181 111.335C27.003 111.126 27.2641 110.685 27.6439 110.505C30.6844 111.923 36.8893 113.464 39.2315 114.002C39.4808 114.059 38.7397 114.585 38.8719 114.768ZM55.6705 116.762V117.537C62.8481 118.625 107.368 121.629 115.289 117.537C107.745 118.349 99.7301 118.873 91.7001 118.467L55.6705 116.762ZM156.766 93.5095C157.805 93.7387 159.391 93.9299 161.163 94.3934C163.319 94.9613 167.945 96.7865 167.834 99.3877C167.834 103.562 160.627 107.821 157.155 107.074C156.577 106.949 157.441 105.734 157.471 105.083C157.485 104.899 157.304 104.818 157.155 104.747C156.34 104.368 150.155 109.355 149.794 106.298C149.478 103.6 154.02 100.452 157.524 99.8233C158.472 99.6523 158.996 99.8494 158.5 101.088C158.286 101.621 157.981 101.846 157.555 102.43C160.338 102.182 161.494 98.9352 158.317 98.9352C154.933 98.9352 148.984 103.64 147.999 106.963C147.675 108.064 148.158 109.01 149.407 109.01C151.825 109.01 154.937 106.852 155.606 106.686C155.329 107.667 155.229 107.935 155.648 108.236C156.226 108.654 158.393 107.921 157.752 108.236C150.632 111.733 142.408 113.476 134.711 114.913C137.441 114.99 147.501 113.018 155.024 110.365C160.069 108.585 163.843 106.071 164.969 105.202C172.525 99.9556 168.142 94.3572 162.627 93.0275C161.068 92.6525 157.748 92.0972 156.766 93.5095Z" stroke="#397FD1" stroke-width="0.6" mask="url(#path-1-outside-1)"/>
<path d="M77.7983 61.5498L77.5621 61.7286C76.0403 60.274 74.8156 57.8211 73.8611 54.8315C72.9053 51.8375 72.2148 48.2868 71.7725 44.6182C70.8883 37.2837 70.9934 29.455 71.9666 24.6311C72.8697 20.1483 74.8119 14.7634 77.5322 11.6769L77.5322 11.6768C79.1992 9.78732 81.9266 8.97439 84.5222 9.1071C87.1156 9.23969 89.6244 10.3195 90.8396 12.2749L90.9957 12.5261L90.7008 12.5037C88.6521 12.3477 87.0063 12.4515 85.6339 12.7871L77.7983 61.5498ZM77.7983 61.5498C76.8037 59.6767 74.967 55.8483 74.3301 52.0793L74.3301 52.0793M77.7983 61.5498L74.3301 52.0793M74.3301 52.0793C73.3536 46.309 73.338 38.8542 74.4902 31.9582L74.4902 31.9581M74.3301 52.0793L74.4902 31.9581M74.4902 31.9581C75.0121 28.8326 76.0464 24.4616 77.8331 20.6575M74.4902 31.9581L77.8331 20.6575M96.4502 59.2157C95.7381 59.1606 95.0358 59.2877 94.3695 59.5474L94.3689 59.5476C92.3613 60.3396 90.6703 62.3924 90.0443 64.7166L90.0443 64.7166C89.5675 66.4903 89.4083 68.512 89.2516 70.5022C89.2159 70.955 89.1804 71.4061 89.1413 71.8524C88.929 74.2741 88.6116 76.549 87.6248 78.2308L87.6248 78.2309C87.2943 78.7951 86.9638 79.0673 86.594 79.1968C86.2148 79.3296 85.7745 79.3206 85.2003 79.2762L85.1996 79.2762C83.965 79.1862 82.7639 78.781 81.6037 78.1088C78.8617 76.5142 76.3506 73.4099 74.145 69.3871C71.9413 65.3676 70.0513 60.4472 68.5437 55.2414C65.5278 44.8275 64.0489 33.2954 64.6392 25.5873L64.6392 25.5872L64.7361 24.3148C64.7361 24.3148 64.7361 24.3148 64.7361 24.3148C65.1067 19.4593 66.0047 15.6132 67.5648 12.5267C69.1234 9.44299 71.3467 7.11024 74.3808 5.28574C77.7294 3.27237 80.9402 3.22084 85.6408 3.9773L85.6408 3.97731C87.7771 4.32027 89.8568 5.02803 91.8004 5.68947L91.8674 5.71229C93.8223 6.3775 95.6479 6.99489 97.2281 7.11588L97.5478 7.14113L97.5486 7.14118C97.6184 7.14637 97.7121 7.12727 97.8082 7.10233C97.9111 7.07563 98.0395 7.0357 98.1898 6.9854C98.4904 6.88475 98.8885 6.73907 99.362 6.56556L99.3918 6.55466C100.337 6.20829 101.585 5.75087 102.991 5.30567C105.837 4.40438 109.306 3.56023 112.191 3.78159L112.192 3.78162L112.51 3.80519C112.51 3.80519 112.51 3.8052 112.51 3.8052C116.395 4.10194 119.434 5.53231 121.756 7.80241C124.081 10.0747 125.696 13.1964 126.717 16.8862C128.759 24.2685 128.412 33.8922 126.642 43.4231C124.873 52.9516 121.685 62.3697 118.061 69.3347C116.249 72.8178 114.332 75.6806 112.433 77.6368C110.53 79.598 108.672 80.6216 106.976 80.4921C106.042 80.4208 105.333 80.0603 104.783 79.4836C104.23 78.9032 103.83 78.0968 103.532 77.1258C102.996 75.3814 102.8 73.1505 102.598 70.8449C102.574 70.578 102.551 70.3101 102.526 70.0418C102.295 67.4689 102.005 64.8644 101.166 62.857C100.746 61.8507 100.184 60.9862 99.4155 60.3496C98.645 59.7116 97.6747 59.3093 96.4502 59.2157ZM96.4502 59.2157L96.4386 59.3653M96.4502 59.2157C96.4501 59.2157 96.4501 59.2157 96.4501 59.2157L96.4386 59.3653M96.4386 59.3653C95.7522 59.3122 95.0725 59.4344 94.424 59.6872C92.4674 60.459 90.8048 62.4695 90.1891 64.7556C89.7164 66.5145 89.5584 68.5186 89.4016 70.5081C89.1732 73.4061 88.9473 76.2733 87.7542 78.3067C87.0686 79.4772 86.3333 79.5142 85.1887 79.4258C83.9279 79.3339 82.7049 78.9202 81.5283 78.2385L96.4386 59.3653ZM77.8331 20.6575C79.623 16.8467 82.149 13.6446 85.6337 12.7871L77.8331 20.6575ZM82.6785 0.904861L82.667 1.05442L82.6785 0.90486C76.5465 0.436909 71.4977 2.99684 67.9533 7.25918C64.4122 11.5174 62.3729 17.4727 62.2384 23.8099L62.0189 26.6682L62.0189 26.6682C61.331 35.6715 63.2179 49.1107 67.21 60.4479C69.2063 66.1171 71.7322 71.2701 74.7331 75.0828C77.7329 78.894 81.2222 81.3837 85.1461 81.6836L86.0976 81.756C86.0977 81.756 86.0978 81.756 86.0978 81.756C86.8464 81.8145 87.4763 81.6796 88.0415 81.4882C88.6246 81.2908 89.115 80.9399 89.5239 80.4792L89.524 80.4791C90.3206 79.5805 90.7685 78.2515 91.0489 76.778C91.3168 75.3709 91.4356 73.8094 91.5484 72.3264C91.5539 72.2534 91.5595 72.1806 91.565 72.1081C91.5712 72.0284 91.5774 71.9472 91.5837 71.8646C91.6663 70.7829 91.767 69.4643 91.964 68.1373C92.1762 66.7076 92.4988 65.2789 93.0249 64.134L93.0249 64.1339C93.7356 62.5832 94.9343 61.7633 96.105 61.7001C97.27 61.6372 98.453 62.3213 99.1467 63.8763L99.1467 63.8763C99.6621 65.0311 99.9585 66.5743 100.189 68.2896C100.295 69.0761 100.387 69.8953 100.479 70.7265C100.488 70.8 100.496 70.8737 100.504 70.9474C100.606 71.8536 100.71 72.7715 100.838 73.6704C101.093 75.4663 101.44 77.1975 102.044 78.6221C102.648 80.0477 103.515 81.1821 104.818 81.7587C106.494 82.5035 108.829 82.4451 110.483 81.6594C111.807 81.031 113.136 79.8664 114.408 78.4104C115.682 76.9526 116.906 75.1935 118.017 73.3644C120.237 69.707 122.012 65.7566 122.828 63.3467L122.828 63.3467C125.307 56.0091 128.851 44.5844 129.915 33.4489C130.979 22.3234 129.573 11.4296 122.089 5.21704C114.696 -0.923488 104.679 1.2599 97.0855 4.55573C96.1187 4.25023 95.1812 3.93157 94.2487 3.61463C90.7487 2.42498 87.3198 1.25949 82.6785 0.904861Z" fill="#397FD1" stroke="#397FD1" stroke-width="0.3"/>
<mask id="path-3-outside-2" maskUnits="userSpaceOnUse" x="7.64227" y="76.4888" width="69" height="37" fill="black">
<rect fill="white" x="7.64227" y="76.4888" width="69" height="37"/>
<path d="M42.0666 79.6851C39.3225 80.5 36.5482 81.7235 33.7393 83.3565C33.0242 83.7727 31.9967 84.3095 31.2631 84.9195C30.7215 85.3729 29.0084 87.1197 28.5351 87.9092C28.0617 88.6962 27.7054 89.5405 27.7054 90.1818C27.7054 92.1822 30.7754 92.906 32.3622 92.906C34.1882 92.906 36.4816 92.226 38.7187 91.2148C40.9565 90.2037 43.1438 88.8622 44.7601 87.5384C44.846 87.5384 45.4516 87.2646 45.4937 87.2208L45.5156 87.2317L45.54 87.2435C45.2402 87.53 44.9328 87.8106 44.6144 88.0862C44.296 88.3608 43.9625 88.6322 43.6197 88.8942C39.9416 91.7246 35.9712 93.1419 31.7171 93.1419C30.1757 93.1419 29.0193 92.9464 28.2487 92.5572C27.4763 92.1653 26.9811 91.5291 26.9811 90.748C26.9811 90.1321 27.0409 89.2768 27.4704 88.4224C28.3717 86.6208 29.4758 85.4361 30.3324 84.7005C35.8036 80.0095 44.7053 77.5078 49.6072 77.4892C52.3555 77.4783 53.543 77.6611 54.9968 78.0513C56.4538 78.4414 57.6456 78.9411 59.1347 79.7264C60.3088 80.3457 61.771 81.1521 63.0689 81.972C66.3924 84.0676 69.5053 85.5195 70.361 85.6906C71.7836 85.9745 73.2727 86.4043 75.9375 85.977C76.202 85.9349 73.6769 86.7843 71.5031 86.6924C69.79 86.6183 67.8132 85.6467 65.4987 84.403C63.7258 83.4517 61.7566 82.1195 59.5634 80.7814C58.3927 80.0668 57.1243 79.5149 55.764 79.1315C54.4047 78.7464 52.5003 78.4945 51.3995 78.4776C49.0454 78.4406 44.8089 78.8711 42.0666 79.6851ZM59.7984 86.8728C59.368 87.1744 58.8357 87.6505 58.2007 88.301C57.5664 88.9507 56.8286 89.7731 55.9923 90.7682C54.5714 92.4476 52.5938 94.9848 50.0477 98.3536C45.177 104.806 42.7269 108.961 42.7269 110.835C42.7269 110.873 42.7379 110.912 42.7564 110.953H42.9038C43.6652 110.953 45.5964 109.508 48.6993 106.616L48.9932 106.822C47.5243 108.071 44.4224 111.304 42.6107 111.304C42.1045 111.304 41.8476 110.942 41.8476 110.22C41.8476 109.829 41.8889 109.456 41.9672 109.107C42.5475 106.53 45.4448 101.861 50.6348 95.1044C52.8305 92.2445 54.6413 90.0984 56.0732 88.6667C57.5008 87.2385 58.5494 86.5205 59.2139 86.5205C59.3091 86.5205 59.4059 86.5517 59.5061 86.6107C59.603 86.6663 59.6982 86.7556 59.7984 86.8728ZM56.9575 81.8633C56.9575 81.9906 56.9087 82.1136 56.811 82.229C56.7116 82.3462 55.3606 82.829 54.75 83.1568C54.1394 83.4871 53.5515 83.8831 53.2651 84.1477C52.732 84.6465 52.1483 85.2794 51.5073 86.0343C50.8655 86.7902 50.1682 87.6682 49.4017 88.6583C47.1302 91.5966 44.3971 95.2729 41.2311 99.7043C37.937 104.313 34.5007 107.62 30.954 109.663C27.2228 111.814 23.8606 112.474 19.5929 112.474C17.3306 112.474 14.2977 112.232 11.776 110.136C10.5564 109.118 8.60328 106.666 8.64287 104.154C8.70266 100.296 11.0576 97.8944 11.0576 97.8944C11.5663 97.2354 12.4246 96.483 13.6197 95.6294C16.5095 93.5658 19.6611 92.5251 23.0773 92.5251C23.682 92.5251 24.4535 92.5934 25.3909 92.729C25.6049 91.5755 25.9367 90.8837 26.3856 90.6494L26.4454 90.6638L26.5036 90.6789C26.4143 90.7084 26.3081 90.7598 26.2374 90.8769C25.7977 91.6269 25.7792 91.9387 25.6251 92.7585C27.3551 93.0113 29.7134 94.1059 30.6584 95.6285C31.1292 95.5906 31.9335 95.4305 33.0596 95.1305C35.8946 94.3781 38.8088 93.0973 41.7002 91.1457C43.0141 90.2585 44.312 89.3349 45.604 88.408C46.896 87.4795 48.1855 86.5475 49.4876 85.6383C50.1168 85.201 50.708 84.8125 51.2597 84.4713C51.8131 84.13 52.3268 83.8368 52.7977 83.5882C52.9686 83.4963 53.1935 83.3902 53.4588 83.257C53.7266 83.1264 54.0341 82.9672 54.3786 82.7675C54.878 82.4759 55.1694 82.1979 55.5004 81.9914C55.834 81.7866 56.2062 81.6544 56.8674 81.6544C56.8952 81.6822 56.9162 81.7159 56.9314 81.7496C56.9516 81.7866 56.9575 81.8237 56.9575 81.8633ZM54.0854 83.1509C53.9995 83.2098 53.8875 83.2798 53.7485 83.3632C53.6138 83.4458 53.4504 83.5427 53.2659 83.6497C52.8094 83.9193 52.2266 84.2463 51.5435 84.6516C50.8588 85.0594 50.0713 85.5456 49.1979 86.1371C46.2787 88.1148 43.5102 90.2938 40.6171 92.2597C37.2473 94.5483 34.0206 95.8721 31.0719 96.4206C31.4029 97.0644 31.5697 97.8455 31.5697 98.764C31.5697 104.396 26.2433 107.837 21.4096 109.281C19.619 109.814 17.5151 110.071 15.1164 110.071C14.1596 110.071 13.1994 109.866 12.2435 109.866C14.077 111.442 17.3374 112.153 19.7125 112.153C25.7447 112.153 30.1252 109.694 34.4392 105.678C35.9957 104.229 37.318 102.848 38.3346 101.488C38.9958 100.605 39.9222 99.2164 41.2319 97.4157C41.755 96.6978 42.6317 95.6639 43.7208 94.223C44.1528 93.6542 44.7348 92.7602 45.5956 91.6446C45.7977 91.3842 46.0647 91.0632 46.3848 90.6806C46.7048 90.2964 47.0805 89.8489 47.5016 89.3307C48.5906 87.985 49.6856 86.7961 50.7872 85.7655C51.8821 84.7359 52.9846 83.862 54.0854 83.1509ZM30.0755 95.6302C29.1221 94.4387 27.7021 93.6205 25.6537 93.1512C25.8474 93.9913 26.1355 94.6073 26.6796 95.0143C27.2254 95.4255 27.8225 95.6302 28.4668 95.6302H30.0755ZM31.1031 98.7067C31.1031 97.9651 30.8866 97.2034 30.4571 96.4223C30.0477 96.4813 29.7555 96.5099 29.5803 96.5099C26.7689 96.5099 25.3631 95.3774 25.3631 93.1124C24.6405 92.9161 23.8513 92.8175 22.9897 92.8175C20.9422 92.8175 19.0033 93.3113 17.1066 94.1362C14.0905 95.4474 11.6017 98.4438 11.6017 98.4438C10.292 100.024 9.63756 102.045 9.63756 104.506C9.63756 106.314 10.4739 108.285 11.8341 109.487C12.5383 109.604 13.6686 109.663 15.2301 109.663C21.7516 109.663 26.4842 107.592 29.4632 103.482C30.543 101.991 31.1031 100.405 31.1031 98.7067Z"/>
</mask>
<path d="M42.0666 79.6851C39.3225 80.5 36.5482 81.7235 33.7393 83.3565C33.0242 83.7727 31.9967 84.3095 31.2631 84.9195C30.7215 85.3729 29.0084 87.1197 28.5351 87.9092C28.0617 88.6962 27.7054 89.5405 27.7054 90.1818C27.7054 92.1822 30.7754 92.906 32.3622 92.906C34.1882 92.906 36.4816 92.226 38.7187 91.2148C40.9565 90.2037 43.1438 88.8622 44.7601 87.5384C44.846 87.5384 45.4516 87.2646 45.4937 87.2208L45.5156 87.2317L45.54 87.2435C45.2402 87.53 44.9328 87.8106 44.6144 88.0862C44.296 88.3608 43.9625 88.6322 43.6197 88.8942C39.9416 91.7246 35.9712 93.1419 31.7171 93.1419C30.1757 93.1419 29.0193 92.9464 28.2487 92.5572C27.4763 92.1653 26.9811 91.5291 26.9811 90.748C26.9811 90.1321 27.0409 89.2768 27.4704 88.4224C28.3717 86.6208 29.4758 85.4361 30.3324 84.7005C35.8036 80.0095 44.7053 77.5078 49.6072 77.4892C52.3555 77.4783 53.543 77.6611 54.9968 78.0513C56.4538 78.4414 57.6456 78.9411 59.1347 79.7264C60.3088 80.3457 61.771 81.1521 63.0689 81.972C66.3924 84.0676 69.5053 85.5195 70.361 85.6906C71.7836 85.9745 73.2727 86.4043 75.9375 85.977C76.202 85.9349 73.6769 86.7843 71.5031 86.6924C69.79 86.6183 67.8132 85.6467 65.4987 84.403C63.7258 83.4517 61.7566 82.1195 59.5634 80.7814C58.3927 80.0668 57.1243 79.5149 55.764 79.1315C54.4047 78.7464 52.5003 78.4945 51.3995 78.4776C49.0454 78.4406 44.8089 78.8711 42.0666 79.6851ZM59.7984 86.8728C59.368 87.1744 58.8357 87.6505 58.2007 88.301C57.5664 88.9507 56.8286 89.7731 55.9923 90.7682C54.5714 92.4476 52.5938 94.9848 50.0477 98.3536C45.177 104.806 42.7269 108.961 42.7269 110.835C42.7269 110.873 42.7379 110.912 42.7564 110.953H42.9038C43.6652 110.953 45.5964 109.508 48.6993 106.616L48.9932 106.822C47.5243 108.071 44.4224 111.304 42.6107 111.304C42.1045 111.304 41.8476 110.942 41.8476 110.22C41.8476 109.829 41.8889 109.456 41.9672 109.107C42.5475 106.53 45.4448 101.861 50.6348 95.1044C52.8305 92.2445 54.6413 90.0984 56.0732 88.6667C57.5008 87.2385 58.5494 86.5205 59.2139 86.5205C59.3091 86.5205 59.4059 86.5517 59.5061 86.6107C59.603 86.6663 59.6982 86.7556 59.7984 86.8728ZM56.9575 81.8633C56.9575 81.9906 56.9087 82.1136 56.811 82.229C56.7116 82.3462 55.3606 82.829 54.75 83.1568C54.1394 83.4871 53.5515 83.8831 53.2651 84.1477C52.732 84.6465 52.1483 85.2794 51.5073 86.0343C50.8655 86.7902 50.1682 87.6682 49.4017 88.6583C47.1302 91.5966 44.3971 95.2729 41.2311 99.7043C37.937 104.313 34.5007 107.62 30.954 109.663C27.2228 111.814 23.8606 112.474 19.5929 112.474C17.3306 112.474 14.2977 112.232 11.776 110.136C10.5564 109.118 8.60328 106.666 8.64287 104.154C8.70266 100.296 11.0576 97.8944 11.0576 97.8944C11.5663 97.2354 12.4246 96.483 13.6197 95.6294C16.5095 93.5658 19.6611 92.5251 23.0773 92.5251C23.682 92.5251 24.4535 92.5934 25.3909 92.729C25.6049 91.5755 25.9367 90.8837 26.3856 90.6494L26.4454 90.6638L26.5036 90.6789C26.4143 90.7084 26.3081 90.7598 26.2374 90.8769C25.7977 91.6269 25.7792 91.9387 25.6251 92.7585C27.3551 93.0113 29.7134 94.1059 30.6584 95.6285C31.1292 95.5906 31.9335 95.4305 33.0596 95.1305C35.8946 94.3781 38.8088 93.0973 41.7002 91.1457C43.0141 90.2585 44.312 89.3349 45.604 88.408C46.896 87.4795 48.1855 86.5475 49.4876 85.6383C50.1168 85.201 50.708 84.8125 51.2597 84.4713C51.8131 84.13 52.3268 83.8368 52.7977 83.5882C52.9686 83.4963 53.1935 83.3902 53.4588 83.257C53.7266 83.1264 54.0341 82.9672 54.3786 82.7675C54.878 82.4759 55.1694 82.1979 55.5004 81.9914C55.834 81.7866 56.2062 81.6544 56.8674 81.6544C56.8952 81.6822 56.9162 81.7159 56.9314 81.7496C56.9516 81.7866 56.9575 81.8237 56.9575 81.8633ZM54.0854 83.1509C53.9995 83.2098 53.8875 83.2798 53.7485 83.3632C53.6138 83.4458 53.4504 83.5427 53.2659 83.6497C52.8094 83.9193 52.2266 84.2463 51.5435 84.6516C50.8588 85.0594 50.0713 85.5456 49.1979 86.1371C46.2787 88.1148 43.5102 90.2938 40.6171 92.2597C37.2473 94.5483 34.0206 95.8721 31.0719 96.4206C31.4029 97.0644 31.5697 97.8455 31.5697 98.764C31.5697 104.396 26.2433 107.837 21.4096 109.281C19.619 109.814 17.5151 110.071 15.1164 110.071C14.1596 110.071 13.1994 109.866 12.2435 109.866C14.077 111.442 17.3374 112.153 19.7125 112.153C25.7447 112.153 30.1252 109.694 34.4392 105.678C35.9957 104.229 37.318 102.848 38.3346 101.488C38.9958 100.605 39.9222 99.2164 41.2319 97.4157C41.755 96.6978 42.6317 95.6639 43.7208 94.223C44.1528 93.6542 44.7348 92.7602 45.5956 91.6446C45.7977 91.3842 46.0647 91.0632 46.3848 90.6806C46.7048 90.2964 47.0805 89.8489 47.5016 89.3307C48.5906 87.985 49.6856 86.7961 50.7872 85.7655C51.8821 84.7359 52.9846 83.862 54.0854 83.1509ZM30.0755 95.6302C29.1221 94.4387 27.7021 93.6205 25.6537 93.1512C25.8474 93.9913 26.1355 94.6073 26.6796 95.0143C27.2254 95.4255 27.8225 95.6302 28.4668 95.6302H30.0755ZM31.1031 98.7067C31.1031 97.9651 30.8866 97.2034 30.4571 96.4223C30.0477 96.4813 29.7555 96.5099 29.5803 96.5099C26.7689 96.5099 25.3631 95.3774 25.3631 93.1124C24.6405 92.9161 23.8513 92.8175 22.9897 92.8175C20.9422 92.8175 19.0033 93.3113 17.1066 94.1362C14.0905 95.4474 11.6017 98.4438 11.6017 98.4438C10.292 100.024 9.63756 102.045 9.63756 104.506C9.63756 106.314 10.4739 108.285 11.8341 109.487C12.5383 109.604 13.6686 109.663 15.2301 109.663C21.7516 109.663 26.4842 107.592 29.4632 103.482C30.543 101.991 31.1031 100.405 31.1031 98.7067Z" fill="#397FD1"/>
<path d="M42.0666 79.6851C39.3225 80.5 36.5482 81.7235 33.7393 83.3565C33.0242 83.7727 31.9967 84.3095 31.2631 84.9195C30.7215 85.3729 29.0084 87.1197 28.5351 87.9092C28.0617 88.6962 27.7054 89.5405 27.7054 90.1818C27.7054 92.1822 30.7754 92.906 32.3622 92.906C34.1882 92.906 36.4816 92.226 38.7187 91.2148C40.9565 90.2037 43.1438 88.8622 44.7601 87.5384C44.846 87.5384 45.4516 87.2646 45.4937 87.2208L45.5156 87.2317L45.54 87.2435C45.2402 87.53 44.9328 87.8106 44.6144 88.0862C44.296 88.3608 43.9625 88.6322 43.6197 88.8942C39.9416 91.7246 35.9712 93.1419 31.7171 93.1419C30.1757 93.1419 29.0193 92.9464 28.2487 92.5572C27.4763 92.1653 26.9811 91.5291 26.9811 90.748C26.9811 90.1321 27.0409 89.2768 27.4704 88.4224C28.3717 86.6208 29.4758 85.4361 30.3324 84.7005C35.8036 80.0095 44.7053 77.5078 49.6072 77.4892C52.3555 77.4783 53.543 77.6611 54.9968 78.0513C56.4538 78.4414 57.6456 78.9411 59.1347 79.7264C60.3088 80.3457 61.771 81.1521 63.0689 81.972C66.3924 84.0676 69.5053 85.5195 70.361 85.6906C71.7836 85.9745 73.2727 86.4043 75.9375 85.977C76.202 85.9349 73.6769 86.7843 71.5031 86.6924C69.79 86.6183 67.8132 85.6467 65.4987 84.403C63.7258 83.4517 61.7566 82.1195 59.5634 80.7814C58.3927 80.0668 57.1243 79.5149 55.764 79.1315C54.4047 78.7464 52.5003 78.4945 51.3995 78.4776C49.0454 78.4406 44.8089 78.8711 42.0666 79.6851ZM59.7984 86.8728C59.368 87.1744 58.8357 87.6505 58.2007 88.301C57.5664 88.9507 56.8286 89.7731 55.9923 90.7682C54.5714 92.4476 52.5938 94.9848 50.0477 98.3536C45.177 104.806 42.7269 108.961 42.7269 110.835C42.7269 110.873 42.7379 110.912 42.7564 110.953H42.9038C43.6652 110.953 45.5964 109.508 48.6993 106.616L48.9932 106.822C47.5243 108.071 44.4224 111.304 42.6107 111.304C42.1045 111.304 41.8476 110.942 41.8476 110.22C41.8476 109.829 41.8889 109.456 41.9672 109.107C42.5475 106.53 45.4448 101.861 50.6348 95.1044C52.8305 92.2445 54.6413 90.0984 56.0732 88.6667C57.5008 87.2385 58.5494 86.5205 59.2139 86.5205C59.3091 86.5205 59.4059 86.5517 59.5061 86.6107C59.603 86.6663 59.6982 86.7556 59.7984 86.8728ZM56.9575 81.8633C56.9575 81.9906 56.9087 82.1136 56.811 82.229C56.7116 82.3462 55.3606 82.829 54.75 83.1568C54.1394 83.4871 53.5515 83.8831 53.2651 84.1477C52.732 84.6465 52.1483 85.2794 51.5073 86.0343C50.8655 86.7902 50.1682 87.6682 49.4017 88.6583C47.1302 91.5966 44.3971 95.2729 41.2311 99.7043C37.937 104.313 34.5007 107.62 30.954 109.663C27.2228 111.814 23.8606 112.474 19.5929 112.474C17.3306 112.474 14.2977 112.232 11.776 110.136C10.5564 109.118 8.60328 106.666 8.64287 104.154C8.70266 100.296 11.0576 97.8944 11.0576 97.8944C11.5663 97.2354 12.4246 96.483 13.6197 95.6294C16.5095 93.5658 19.6611 92.5251 23.0773 92.5251C23.682 92.5251 24.4535 92.5934 25.3909 92.729C25.6049 91.5755 25.9367 90.8837 26.3856 90.6494L26.4454 90.6638L26.5036 90.6789C26.4143 90.7084 26.3081 90.7598 26.2374 90.8769C25.7977 91.6269 25.7792 91.9387 25.6251 92.7585C27.3551 93.0113 29.7134 94.1059 30.6584 95.6285C31.1292 95.5906 31.9335 95.4305 33.0596 95.1305C35.8946 94.3781 38.8088 93.0973 41.7002 91.1457C43.0141 90.2585 44.312 89.3349 45.604 88.408C46.896 87.4795 48.1855 86.5475 49.4876 85.6383C50.1168 85.201 50.708 84.8125 51.2597 84.4713C51.8131 84.13 52.3268 83.8368 52.7977 83.5882C52.9686 83.4963 53.1935 83.3902 53.4588 83.257C53.7266 83.1264 54.0341 82.9672 54.3786 82.7675C54.878 82.4759 55.1694 82.1979 55.5004 81.9914C55.834 81.7866 56.2062 81.6544 56.8674 81.6544C56.8952 81.6822 56.9162 81.7159 56.9314 81.7496C56.9516 81.7866 56.9575 81.8237 56.9575 81.8633ZM54.0854 83.1509C53.9995 83.2098 53.8875 83.2798 53.7485 83.3632C53.6138 83.4458 53.4504 83.5427 53.2659 83.6497C52.8094 83.9193 52.2266 84.2463 51.5435 84.6516C50.8588 85.0594 50.0713 85.5456 49.1979 86.1371C46.2787 88.1148 43.5102 90.2938 40.6171 92.2597C37.2473 94.5483 34.0206 95.8721 31.0719 96.4206C31.4029 97.0644 31.5697 97.8455 31.5697 98.764C31.5697 104.396 26.2433 107.837 21.4096 109.281C19.619 109.814 17.5151 110.071 15.1164 110.071C14.1596 110.071 13.1994 109.866 12.2435 109.866C14.077 111.442 17.3374 112.153 19.7125 112.153C25.7447 112.153 30.1252 109.694 34.4392 105.678C35.9957 104.229 37.318 102.848 38.3346 101.488C38.9958 100.605 39.9222 99.2164 41.2319 97.4157C41.755 96.6978 42.6317 95.6639 43.7208 94.223C44.1528 93.6542 44.7348 92.7602 45.5956 91.6446C45.7977 91.3842 46.0647 91.0632 46.3848 90.6806C46.7048 90.2964 47.0805 89.8489 47.5016 89.3307C48.5906 87.985 49.6856 86.7961 50.7872 85.7655C51.8821 84.7359 52.9846 83.862 54.0854 83.1509ZM30.0755 95.6302C29.1221 94.4387 27.7021 93.6205 25.6537 93.1512C25.8474 93.9913 26.1355 94.6073 26.6796 95.0143C27.2254 95.4255 27.8225 95.6302 28.4668 95.6302H30.0755ZM31.1031 98.7067C31.1031 97.9651 30.8866 97.2034 30.4571 96.4223C30.0477 96.4813 29.7555 96.5099 29.5803 96.5099C26.7689 96.5099 25.3631 95.3774 25.3631 93.1124C24.6405 92.9161 23.8513 92.8175 22.9897 92.8175C20.9422 92.8175 19.0033 93.3113 17.1066 94.1362C14.0905 95.4474 11.6017 98.4438 11.6017 98.4438C10.292 100.024 9.63756 102.045 9.63756 104.506C9.63756 106.314 10.4739 108.285 11.8341 109.487C12.5383 109.604 13.6686 109.663 15.2301 109.663C21.7516 109.663 26.4842 107.592 29.4632 103.482C30.543 101.991 31.1031 100.405 31.1031 98.7067Z" stroke="#397FD1" stroke-width="0.6" mask="url(#path-3-outside-2)"/>
</svg>
